<svg width="63" height="146" viewBox="0 0 63 146" fill="none" xmlns="http://www.w3.org/2000/svg">
<path d="M6.97961 83.4958C6.97961 85.431 5.42099 86.9956 3.49322 86.9956C1.56546 86.9956 0 85.431 0 83.4958C0 81.5606 1.55862 79.9959 3.48638 79.9959C5.41415 79.9959 6.97961 81.5606 6.97961 83.4958Z" fill="#0183CC"/>
<path d="M25.1088 86.9956C27.0343 86.9956 28.5952 85.4287 28.5952 83.4958C28.5952 81.5629 27.0343 79.9959 25.1088 79.9959C23.1833 79.9959 21.6224 81.5629 21.6224 83.4958C21.6224 85.4287 23.1833 86.9956 25.1088 86.9956Z" fill="#0183CC"/>
<path d="M46.7312 86.9956C48.6567 86.9956 50.2176 85.4287 50.2176 83.4958C50.2176 81.5629 48.6567 79.9959 46.7312 79.9959C44.8057 79.9959 43.2448 81.5629 43.2448 83.4958C43.2448 85.4287 44.8057 86.9956 46.7312 86.9956Z" fill="#0183CC"/>
<path d="M71.8332 83.4958C71.8332 85.431 70.2746 86.9956 68.3468 86.9956C66.419 86.9956 64.8604 85.431 64.8604 83.4958C64.8604 81.5606 66.419 79.9959 68.3468 79.9959C70.2746 79.9959 71.8332 81.5606 71.8332 83.4958Z" fill="#0183CC"/>
<path d="M6.97961 102.93C6.97961 104.865 5.42099 106.43 3.49322 106.43C1.56546 106.43 0 104.865 0 102.93C0 100.995 1.55862 99.4303 3.48638 99.4303C5.41415 99.4303 6.97961 100.995 6.97961 102.93Z" fill="#0183CC"/>
<path d="M25.1088 106.43C27.0343 106.43 28.5952 104.863 28.5952 102.93C28.5952 100.997 27.0343 99.4303 25.1088 99.4303C23.1833 99.4303 21.6224 100.997 21.6224 102.93C21.6224 104.863 23.1833 106.43 25.1088 106.43Z" fill="#0183CC"/>
<path d="M46.7312 106.43C48.6567 106.43 50.2176 104.863 50.2176 102.93C50.2176 100.997 48.6567 99.4303 46.7312 99.4303C44.8057 99.4303 43.2448 100.997 43.2448 102.93C43.2448 104.863 44.8057 106.43 46.7312 106.43Z" fill="#0183CC"/>
<path d="M71.8332 102.93C71.8332 104.865 70.2746 106.43 68.3468 106.43C66.419 106.43 64.8604 104.865 64.8604 102.93C64.8604 100.995 66.419 99.4303 68.3468 99.4303C70.2746 99.4303 71.8332 100.995 71.8332 102.93Z" fill="#0183CC"/>
<path d="M6.97961 122.365C6.97961 124.3 5.42099 125.864 3.49322 125.864C1.56546 125.864 0 124.3 0 122.365C0 120.429 1.55862 118.865 3.48638 118.865C5.41415 118.865 6.97961 120.429 6.97961 122.365Z" fill="#0183CC"/>
<path d="M25.1088 125.864C27.0343 125.864 28.5952 124.297 28.5952 122.365C28.5952 120.432 27.0343 118.865 25.1088 118.865C23.1833 118.865 21.6224 120.432 21.6224 122.365C21.6224 124.297 23.1833 125.864 25.1088 125.864Z" fill="#0183CC"/>
<path d="M46.7312 125.864C48.6567 125.864 50.2176 124.297 50.2176 122.365C50.2176 120.432 48.6567 118.865 46.7312 118.865C44.8057 118.865 43.2448 120.432 43.2448 122.365C43.2448 124.297 44.8057 125.864 46.7312 125.864Z" fill="#0183CC"/>
<path d="M71.8332 122.365C71.8332 124.3 70.2746 125.864 68.3468 125.864C66.419 125.864 64.8604 124.3 64.8604 122.365C64.8604 120.429 66.419 118.865 68.3468 118.865C70.2746 118.865 71.8332 120.429 71.8332 122.365Z" fill="#0183CC"/>
<path d="M6.97961 141.799C6.97961 143.734 5.42099 145.299 3.49322 145.299C1.56546 145.299 0 143.727 0 141.799C0 139.871 1.55862 138.299 3.48638 138.299C5.41415 138.299 6.97961 139.864 6.97961 141.799Z" fill="#0183CC"/>
<path d="M25.1088 145.299C27.0343 145.299 28.5952 143.732 28.5952 141.799C28.5952 139.866 27.0343 138.299 25.1088 138.299C23.1833 138.299 21.6224 139.866 21.6224 141.799C21.6224 143.732 23.1833 145.299 25.1088 145.299Z" fill="#0183CC"/>
<path d="M46.7312 145.299C48.6567 145.299 50.2176 143.732 50.2176 141.799C50.2176 139.866 48.6567 138.299 46.7312 138.299C44.8057 138.299 43.2448 139.866 43.2448 141.799C43.2448 143.732 44.8057 145.299 46.7312 145.299Z" fill="#0183CC"/>
<path d="M71.8332 141.799C71.8332 143.734 70.2746 145.299 68.3468 145.299C66.419 145.299 64.8604 143.734 64.8604 141.799C64.8604 139.864 66.419 138.299 68.3468 138.299C70.2746 138.299 71.8332 139.864 71.8332 141.799Z" fill="#0183CC"/>
<path d="M6.97961 3.49984C6.97961 5.43505 5.42099 6.99968 3.49322 6.99968C1.56546 6.99968 0 5.43505 0 3.49984C0 1.56463 1.55862 0 3.48638 0C5.41415 0 6.97961 1.56463 6.97961 3.49984Z" fill="#0183CC"/>
<path d="M25.1088 6.99968C27.0343 6.99968 28.5952 5.43275 28.5952 3.49984C28.5952 1.56693 27.0343 0 25.1088 0C23.1833 0 21.6224 1.56693 21.6224 3.49984C21.6224 5.43275 23.1833 6.99968 25.1088 6.99968Z" fill="#0183CC"/>
<path d="M46.7312 6.99968C48.6567 6.99968 50.2176 5.43275 50.2176 3.49984C50.2176 1.56693 48.6567 0 46.7312 0C44.8057 0 43.2448 1.56693 43.2448 3.49984C43.2448 5.43275 44.8057 6.99968 46.7312 6.99968Z" fill="#0183CC"/>
<path d="M71.8332 3.49984C71.8332 5.43505 70.2746 6.99968 68.3468 6.99968C66.419 6.99968 64.8604 5.43505 64.8604 3.49984C64.8604 1.56463 66.419 0 68.3468 0C70.2746 0 71.8332 1.56463 71.8332 3.49984Z" fill="#0183CC"/>
<path d="M6.97961 22.9342C6.97961 24.8694 5.42099 26.4341 3.49322 26.4341C1.56546 26.4341 0 24.8694 0 22.9342C0 20.999 1.55862 19.4344 3.48638 19.4344C5.41415 19.4344 6.97961 20.999 6.97961 22.9342Z" fill="#0183CC"/>
<path d="M25.1088 26.4341C27.0343 26.4341 28.5952 24.8671 28.5952 22.9342C28.5952 21.0013 27.0343 19.4344 25.1088 19.4344C23.1833 19.4344 21.6224 21.0013 21.6224 22.9342C21.6224 24.8671 23.1833 26.4341 25.1088 26.4341Z" fill="#0183CC"/>
<path d="M46.7312 26.4341C48.6567 26.4341 50.2176 24.8671 50.2176 22.9342C50.2176 21.0013 48.6567 19.4344 46.7312 19.4344C44.8057 19.4344 43.2448 21.0013 43.2448 22.9342C43.2448 24.8671 44.8057 26.4341 46.7312 26.4341Z" fill="#0183CC"/>
<path d="M71.8332 22.9342C71.8332 24.8694 70.2746 26.4341 68.3468 26.4341C66.419 26.4341 64.8604 24.8694 64.8604 22.9342C64.8604 20.999 66.419 19.4344 68.3468 19.4344C70.2746 19.4344 71.8332 20.999 71.8332 22.9342Z" fill="#0183CC"/>
<path d="M6.97961 42.3686C6.97961 44.3038 5.42099 45.8685 3.49322 45.8685C1.56546 45.8685 0 44.3038 0 42.3686C0 40.4334 1.55862 38.8688 3.48638 38.8688C5.41415 38.8688 6.97961 40.4334 6.97961 42.3686Z" fill="#0183CC"/>
<path d="M25.1088 45.8685C27.0343 45.8685 28.5952 44.3015 28.5952 42.3686C28.5952 40.4357 27.0343 38.8688 25.1088 38.8688C23.1833 38.8688 21.6224 40.4357 21.6224 42.3686C21.6224 44.3015 23.1833 45.8685 25.1088 45.8685Z" fill="#0183CC"/>
<path d="M46.7312 45.8685C48.6567 45.8685 50.2176 44.3015 50.2176 42.3686C50.2176 40.4357 48.6567 38.8688 46.7312 38.8688C44.8057 38.8688 43.2448 40.4357 43.2448 42.3686C43.2448 44.3015 44.8057 45.8685 46.7312 45.8685Z" fill="#0183CC"/>
<path d="M71.8332 42.3686C71.8332 44.3038 70.2746 45.8685 68.3468 45.8685C66.419 45.8685 64.8604 44.3038 64.8604 42.3686C64.8604 40.4334 66.419 38.8688 68.3468 38.8688C70.2746 38.8688 71.8332 40.4334 71.8332 42.3686Z" fill="#0183CC"/>
<path d="M6.97961 61.803C6.97961 63.7382 5.42099 65.3029 3.49322 65.3029C1.56546 65.3029 0 63.7314 0 61.803C0 59.8747 1.55862 58.3032 3.48638 58.3032C5.41415 58.3032 6.97961 59.8678 6.97961 61.803Z" fill="#0183CC"/>
<path d="M25.1088 65.3029C27.0343 65.3029 28.5952 63.7359 28.5952 61.803C28.5952 59.8701 27.0343 58.3032 25.1088 58.3032C23.1833 58.3032 21.6224 59.8701 21.6224 61.803C21.6224 63.7359 23.1833 65.3029 25.1088 65.3029Z" fill="#0183CC"/>
<path d="M46.7312 65.3029C48.6567 65.3029 50.2176 63.7359 50.2176 61.803C50.2176 59.8701 48.6567 58.3032 46.7312 58.3032C44.8057 58.3032 43.2448 59.8701 43.2448 61.803C43.2448 63.7359 44.8057 65.3029 46.7312 65.3029Z" fill="#0183CC"/>
<path d="M71.8332 61.803C71.8332 63.7382 70.2746 65.3029 68.3468 65.3029C66.419 65.3029 64.8604 63.7382 64.8604 61.803C64.8604 59.8678 66.419 58.3032 68.3468 58.3032C70.2746 58.3032 71.8332 59.8678 71.8332 61.803Z" fill="#0183CC"/>
<path d="M93.5058 83.4958C93.5058 85.431 91.9472 86.9956 90.0194 86.9956C88.0917 86.9956 86.5262 85.431 86.5262 83.4958C86.5262 81.5606 88.0848 79.9959 90.0126 79.9959C91.9404 79.9959 93.5058 81.5606 93.5058 83.4958Z" fill="#0183CC"/>
<path d="M111.635 86.9956C113.56 86.9956 115.121 85.4287 115.121 83.4958C115.121 81.5629 113.56 79.9959 111.635 79.9959C109.71 79.9959 108.149 81.5629 108.149 83.4958C108.149 85.4287 109.71 86.9956 111.635 86.9956Z" fill="#0183CC"/>
<path d="M133.257 86.9956C135.183 86.9956 136.744 85.4287 136.744 83.4958C136.744 81.5629 135.183 79.9959 133.257 79.9959C131.332 79.9959 129.771 81.5629 129.771 83.4958C129.771 85.4287 131.332 86.9956 133.257 86.9956Z" fill="#0183CC"/>
<path d="M158.359 83.4958C158.359 85.431 156.801 86.9956 154.873 86.9956C152.945 86.9956 151.387 85.431 151.387 83.4958C151.387 81.5606 152.945 79.9959 154.873 79.9959C156.801 79.9959 158.359 81.5606 158.359 83.4958Z" fill="#0183CC"/>
<path d="M93.5058 102.93C93.5058 104.865 91.9472 106.43 90.0194 106.43C88.0917 106.43 86.5262 104.865 86.5262 102.93C86.5262 100.995 88.0848 99.4303 90.0126 99.4303C91.9404 99.4303 93.5058 100.995 93.5058 102.93Z" fill="#0183CC"/>
<path d="M111.635 106.43C113.56 106.43 115.121 104.863 115.121 102.93C115.121 100.997 113.56 99.4303 111.635 99.4303C109.71 99.4303 108.149 100.997 108.149 102.93C108.149 104.863 109.71 106.43 111.635 106.43Z" fill="#0183CC"/>
<path d="M133.257 106.43C135.183 106.43 136.744 104.863 136.744 102.93C136.744 100.997 135.183 99.4303 133.257 99.4303C131.332 99.4303 129.771 100.997 129.771 102.93C129.771 104.863 131.332 106.43 133.257 106.43Z" fill="#0183CC"/>
<path d="M158.359 102.93C158.359 104.865 156.801 106.43 154.873 106.43C152.945 106.43 151.387 104.865 151.387 102.93C151.387 100.995 152.945 99.4303 154.873 99.4303C156.801 99.4303 158.359 100.995 158.359 102.93Z" fill="#0183CC"/>
<path d="M93.5058 122.365C93.5058 124.3 91.9472 125.864 90.0194 125.864C88.0917 125.864 86.5262 124.3 86.5262 122.365C86.5262 120.429 88.0848 118.865 90.0126 118.865C91.9404 118.865 93.5058 120.429 93.5058 122.365Z" fill="#0183CC"/>
<path d="M111.635 125.864C113.56 125.864 115.121 124.297 115.121 122.365C115.121 120.432 113.56 118.865 111.635 118.865C109.71 118.865 108.149 120.432 108.149 122.365C108.149 124.297 109.71 125.864 111.635 125.864Z" fill="#0183CC"/>
<path d="M133.257 125.864C135.183 125.864 136.744 124.297 136.744 122.365C136.744 120.432 135.183 118.865 133.257 118.865C131.332 118.865 129.771 120.432 129.771 122.365C129.771 124.297 131.332 125.864 133.257 125.864Z" fill="#0183CC"/>
<path d="M158.359 122.365C158.359 124.3 156.801 125.864 154.873 125.864C152.945 125.864 151.387 124.3 151.387 122.365C151.387 120.429 152.945 118.865 154.873 118.865C156.801 118.865 158.359 120.429 158.359 122.365Z" fill="#0183CC"/>
<path d="M93.5058 141.799C93.5058 143.734 91.9472 145.299 90.0194 145.299C88.0917 145.299 86.5262 143.727 86.5262 141.799C86.5262 139.871 88.0848 138.299 90.0126 138.299C91.9404 138.299 93.5058 139.864 93.5058 141.799Z" fill="#0183CC"/>
<path d="M111.635 145.299C113.56 145.299 115.121 143.732 115.121 141.799C115.121 139.866 113.56 138.299 111.635 138.299C109.71 138.299 108.149 139.866 108.149 141.799C108.149 143.732 109.71 145.299 111.635 145.299Z" fill="#0183CC"/>
<path d="M133.257 145.299C135.183 145.299 136.744 143.732 136.744 141.799C136.744 139.866 135.183 138.299 133.257 138.299C131.332 138.299 129.771 139.866 129.771 141.799C129.771 143.732 131.332 145.299 133.257 145.299Z" fill="#0183CC"/>
<path d="M158.359 141.799C158.359 143.734 156.801 145.299 154.873 145.299C152.945 145.299 151.387 143.734 151.387 141.799C151.387 139.864 152.945 138.299 154.873 138.299C156.801 138.299 158.359 139.864 158.359 141.799Z" fill="#0183CC"/>
<path d="M93.5058 3.49984C93.5058 5.43505 91.9472 6.99968 90.0194 6.99968C88.0917 6.99968 86.5262 5.43505 86.5262 3.49984C86.5262 1.56463 88.0848 0 90.0126 0C91.9404 0 93.5058 1.56463 93.5058 3.49984Z" fill="#0183CC"/>
<path d="M111.635 6.99968C113.56 6.99968 115.121 5.43275 115.121 3.49984C115.121 1.56693 113.56 0 111.635 0C109.71 0 108.149 1.56693 108.149 3.49984C108.149 5.43275 109.71 6.99968 111.635 6.99968Z" fill="#0183CC"/>
<path d="M133.257 6.99968C135.183 6.99968 136.744 5.43275 136.744 3.49984C136.744 1.56693 135.183 0 133.257 0C131.332 0 129.771 1.56693 129.771 3.49984C129.771 5.43275 131.332 6.99968 133.257 6.99968Z" fill="#0183CC"/>
<path d="M158.359 3.49984C158.359 5.43505 156.801 6.99968 154.873 6.99968C152.945 6.99968 151.387 5.43505 151.387 3.49984C151.387 1.56463 152.945 0 154.873 0C156.801 0 158.359 1.56463 158.359 3.49984Z" fill="#0183CC"/>
<path d="M93.5058 22.9342C93.5058 24.8694 91.9472 26.4341 90.0194 26.4341C88.0917 26.4341 86.5262 24.8694 86.5262 22.9342C86.5262 20.999 88.0848 19.4344 90.0126 19.4344C91.9404 19.4344 93.5058 20.999 93.5058 22.9342Z" fill="#0183CC"/>
<path d="M111.635 26.4341C113.56 26.4341 115.121 24.8671 115.121 22.9342C115.121 21.0013 113.56 19.4344 111.635 19.4344C109.71 19.4344 108.149 21.0013 108.149 22.9342C108.149 24.8671 109.71 26.4341 111.635 26.4341Z" fill="#0183CC"/>
<path d="M133.257 26.4341C135.183 26.4341 136.744 24.8671 136.744 22.9342C136.744 21.0013 135.183 19.4344 133.257 19.4344C131.332 19.4344 129.771 21.0013 129.771 22.9342C129.771 24.8671 131.332 26.4341 133.257 26.4341Z" fill="#0183CC"/>
<path d="M158.359 22.9342C158.359 24.8694 156.801 26.4341 154.873 26.4341C152.945 26.4341 151.387 24.8694 151.387 22.9342C151.387 20.999 152.945 19.4344 154.873 19.4344C156.801 19.4344 158.359 20.999 158.359 22.9342Z" fill="#0183CC"/>
<path d="M93.5058 42.3686C93.5058 44.3038 91.9472 45.8685 90.0194 45.8685C88.0917 45.8685 86.5262 44.3038 86.5262 42.3686C86.5262 40.4334 88.0848 38.8688 90.0126 38.8688C91.9404 38.8688 93.5058 40.4334 93.5058 42.3686Z" fill="#0183CC"/>
<path d="M111.635 45.8685C113.56 45.8685 115.121 44.3015 115.121 42.3686C115.121 40.4357 113.56 38.8688 111.635 38.8688C109.71 38.8688 108.149 40.4357 108.149 42.3686C108.149 44.3015 109.71 45.8685 111.635 45.8685Z" fill="#0183CC"/>
<path d="M133.257 45.8685C135.183 45.8685 136.744 44.3015 136.744 42.3686C136.744 40.4357 135.183 38.8688 133.257 38.8688C131.332 38.8688 129.771 40.4357 129.771 42.3686C129.771 44.3015 131.332 45.8685 133.257 45.8685Z" fill="#0183CC"/>
<path d="M158.359 42.3686C158.359 44.3038 156.801 45.8685 154.873 45.8685C152.945 45.8685 151.387 44.3038 151.387 42.3686C151.387 40.4334 152.945 38.8688 154.873 38.8688C156.801 38.8688 158.359 40.4334 158.359 42.3686Z" fill="#0183CC"/>
<path d="M93.5058 61.803C93.5058 63.7382 91.9472 65.3029 90.0194 65.3029C88.0917 65.3029 86.5262 63.7314 86.5262 61.803C86.5262 59.8747 88.0848 58.3032 90.0126 58.3032C91.9404 58.3032 93.5058 59.8678 93.5058 61.803Z" fill="#0183CC"/>
<path d="M111.635 65.3029C113.56 65.3029 115.121 63.7359 115.121 61.803C115.121 59.8701 113.56 58.3032 111.635 58.3032C109.71 58.3032 108.149 59.8701 108.149 61.803C108.149 63.7359 109.71 65.3029 111.635 65.3029Z" fill="#0183CC"/>
<path d="M133.257 65.3029C135.183 65.3029 136.744 63.7359 136.744 61.803C136.744 59.8701 135.183 58.3032 133.257 58.3032C131.332 58.3032 129.771 59.8701 129.771 61.803C129.771 63.7359 131.332 65.3029 133.257 65.3029Z" fill="#0183CC"/>
<path d="M158.359 61.803C158.359 63.7382 156.801 65.3029 154.873 65.3029C152.945 65.3029 151.387 63.7382 151.387 61.803C151.387 59.8678 152.945 58.3032 154.873 58.3032C156.801 58.3032 158.359 59.8678 158.359 61.803Z" fill="#0183CC"/>
</svg>
