<svg width="44" height="40" viewBox="0 0 44 40" fill="none" xmlns="http://www.w3.org/2000/svg">
<path d="M11.7368 15.9621C16.7564 19.77 26.1031 17.866 29.5649 12.6734C29.6797 12.5816 29.7533 12.4479 29.7695 12.3019C29.7857 12.1558 29.7433 12.0093 29.6514 11.8945C29.5596 11.7797 29.426 11.7061 29.2799 11.6899C29.1339 11.6737 28.9873 11.7161 28.8725 11.808C26.6224 12.8465 24.7184 14.5774 22.4683 15.4428C20.8624 16.1829 19.1104 16.5517 17.3424 16.5217C15.5745 16.4917 13.836 16.0638 12.2561 15.2697C12.2246 15.1813 12.1698 15.103 12.0974 15.0432C12.025 14.9835 11.9377 14.9444 11.8449 14.9303C11.7521 14.9162 11.6572 14.9275 11.5703 14.963C11.4834 14.9986 11.4077 15.057 11.3514 15.1321C11.2951 15.2072 11.2602 15.2962 11.2504 15.3896C11.2406 15.4829 11.2563 15.5772 11.2959 15.6624C11.3354 15.7475 11.3973 15.8204 11.4749 15.8731C11.5526 15.9259 11.6431 15.9566 11.7368 15.9621Z" fill="black"/>
<path d="M27.8334 12.6735C22.4676 15.9622 21.256 25.1358 25.5832 29.4631C26.4487 30.1554 27.6603 29.1169 26.9679 28.2514C25.7854 26.9645 25.0202 25.3498 24.773 23.6196C24.5259 21.8895 24.8083 20.125 25.5832 18.5585C26.4605 16.771 27.4431 15.037 28.5257 13.3659C28.572 13.269 28.5871 13.1601 28.5689 13.0543C28.5508 12.9484 28.5003 12.8508 28.4243 12.7749C28.3484 12.699 28.2508 12.6484 28.145 12.6303C28.0391 12.6121 27.9303 12.6272 27.8334 12.6735Z" fill="black"/>
<path d="M8.27432 13.3656C10.6976 15.962 12.4284 18.5583 12.2553 22.1931C12.0823 25.828 10.3514 27.732 9.31285 30.6745C8.27432 33.617 9.83211 31.5399 10.3514 31.1937C15.8902 27.2127 15.1978 15.6158 8.79358 12.6733C8.44741 12.5002 7.92814 13.0195 8.27432 13.3656Z" fill="black"/>
<path d="M10.1779 30.5017C12.7903 29.4664 15.5241 28.7684 18.313 28.4246C21.9479 28.2515 24.3711 29.8093 27.4867 31.5402C27.6015 31.632 27.748 31.6745 27.8941 31.6582C28.0401 31.642 28.1738 31.5684 28.2656 31.4536C28.3574 31.3389 28.3999 31.1923 28.3836 31.0463C28.3674 30.9002 28.2938 30.7666 28.1791 30.6748C24.198 24.7898 15.0244 26.1745 9.83171 29.29C9.31244 29.6362 9.48553 30.6748 10.1779 30.5017Z" fill="black"/>
<path d="M30.6027 33.7904L31.9874 36.0406C32.2429 36.6897 32.5318 37.3252 32.8528 37.9445C33.0259 38.2907 33.3721 38.2907 33.7183 38.1176C34.0645 37.9445 32.5067 33.9635 31.6412 33.0981C30.7758 32.2326 30.0834 33.0981 30.6027 33.7904Z" fill="black"/>
<path d="M18.3139 33.4439C18.3425 34.1981 18.2844 34.9531 18.1408 35.6941C17.8873 36.3638 17.713 37.0609 17.6216 37.7711C17.6216 38.2904 18.1408 38.6366 18.487 38.2904C19.0275 37.5862 19.4017 36.7689 19.5815 35.8996C19.7614 35.0304 19.7422 34.1317 19.5256 33.2709C19.5659 33.1585 19.5765 33.0376 19.5564 32.92C19.5362 32.8023 19.486 32.6919 19.4106 32.5994C19.3352 32.5068 19.2371 32.4354 19.1259 32.392C19.0147 32.3485 18.8942 32.3346 18.776 32.3514C18.6579 32.3683 18.5461 32.4155 18.4515 32.4883C18.3569 32.5611 18.2828 32.6572 18.2363 32.7671C18.1898 32.8771 18.1725 32.9972 18.1861 33.1157C18.1997 33.2343 18.2437 33.3474 18.3139 33.4439Z" fill="black"/>
<path d="M7.06287 32.9248C6.04986 33.9949 4.94987 34.9791 3.7742 35.8673C2.49098 36.6925 1.27552 37.6185 0.139347 38.6367C-0.20683 39.156 0.139347 39.8483 0.658611 39.5022C2.20345 38.8453 3.61224 37.9061 4.81273 36.7328C5.99119 35.7846 7.091 34.7427 8.1014 33.6172C8.62067 32.9248 7.58214 32.4056 7.06287 32.9248Z" fill="black"/>
<path d="M2.56245 23.0589H4.29333C4.98569 23.2319 5.33186 23.5781 6.02421 23.5781C6.12098 23.5707 6.21375 23.5364 6.29198 23.479C6.37021 23.4215 6.43079 23.3433 6.46683 23.2532C6.50287 23.1631 6.51294 23.0647 6.4959 22.9692C6.47885 22.8736 6.43537 22.7848 6.37039 22.7127C5.83004 22.1914 5.15329 21.8335 4.41825 21.6804C3.68321 21.5272 2.91984 21.5851 2.21628 21.8472C1.52392 22.0203 1.69701 23.0589 2.56245 23.0589Z" fill="black"/>
<path d="M0.31242 1.24979L4.12036 5.05773C5.30822 6.24487 6.5809 7.344 7.9283 8.34641C8.04306 8.43822 8.1896 8.48068 8.33567 8.46445C8.48174 8.44822 8.61539 8.37463 8.7072 8.25986C8.79901 8.1451 8.84147 7.99856 8.82524 7.85249C8.80901 7.70642 8.73542 7.57278 8.62065 7.48097C7.54089 6.19608 6.3218 5.03505 4.9858 4.0192L1.35095 0.557441C0.831685 0.0381768 -0.206844 0.730529 0.31242 1.24979Z" fill="black"/>
<path d="M15.5436 5.40383C15.3116 6.79577 15.4306 8.2236 15.8898 9.55794C16.236 9.90412 16.9283 9.73103 16.9283 9.38486C16.9283 9.03868 16.5822 6.78853 16.7552 5.40383C16.9283 4.01912 15.7167 4.53839 15.5436 5.40383Z" fill="black"/>
<path d="M42.8919 0.210947C41.161 3.15345 38.7378 5.2305 37.0069 7.82683C35.276 10.4231 37.3531 8.86536 37.6993 8.51918C40.3251 6.48403 42.4556 3.88017 43.9304 0.9033C44.2766 0.210947 43.2381 -0.308317 42.8919 0.210947Z" fill="black"/>
<path d="M32.68 21.674L35.7956 22.5395C36.7198 22.9487 37.7297 23.1269 38.7381 23.0588C39.2574 22.8857 39.4304 22.3664 39.0843 22.0202C38.083 21.5709 37.0393 21.223 35.9687 20.9817L32.8531 20.4624C32.1607 20.2893 31.9877 21.501 32.68 21.674Z" fill="black"/>
</svg>
